<svg id="Capa_1" enable-background="new 0 0 512.033 512.033" height="512" viewBox="0 0 512.033 512.033" width="512" xmlns="http://www.w3.org/2000/svg"><g><g><path d="m376.016 241.019c-45.993 0-89.857-11.181-120-30.26-30.142 19.079-74.006 30.26-120 30.26-41.738 0-113.732-16.028-134.112-52.716-5.546-9.982 1.686-22.284 13.112-22.284 64.031 0 91.407-30.163 117.883-59.333 20.379-22.454 41.452-45.672 76.575-45.672 15.172 0 31.08 5.717 46.542 16.64 15.463-10.923 31.371-16.64 46.542-16.64 35.123 0 56.196 23.218 76.575 45.672 26.476 29.17 53.852 59.333 117.883 59.333 11.42 0 18.661 12.296 13.112 22.284-20.363 36.66-92.423 52.716-134.112 52.716z"/></g><g><path d="m245.41 446.626c-24.458-29.343-64.394-48.158-64.394-100.606 0-41.355 33.645-75 75-75s75 33.645 75 75c0 52.199-41.44 73.068-64.394 100.606-5.856 5.857-15.354 5.858-21.212 0z"/></g></g></svg>