<?xml version="1.0" encoding="iso-8859-1"?>
<!-- Generator: Adobe Illustrator 16.0.0, SVG Export Plug-In . SVG Version: 6.00 Build 0)  -->
<!DOCTYPE svg PUBLIC "-//W3C//DTD SVG 1.1//EN" "http://www.w3.org/Graphics/SVG/1.1/DTD/svg11.dtd">
<svg version="1.1" id="Capa_1" xmlns="http://www.w3.org/2000/svg" xmlns:xlink="http://www.w3.org/1999/xlink" x="0px" y="0px"
	 width="31.37px" height="31.37px" viewBox="0 0 31.37 31.37" style="enable-background:new 0 0 31.37 31.37;" xml:space="preserve"
	>
<g>
	<path d="M2.661,28.548c-1.2-0.833-1.788-6.811-1.788-6.811s-1.005-6.443-0.858-7.766c0.147-1.323,2.302-3.186,3.013-3.062
		C1.583,8.828,4.522,8.044,4.522,8.044s2.792-2.523,9.259-3.895c0.612-0.049-0.883-0.637-2.164-0.806
		c0.449-0.885,3.267,0.609,3.267,0.609s-1.127-1.2-2.426-1.567c0.375-0.382,2.086,0.714,4.018,1.444
		c3.519,1.332,6.678,1.205,7.731,2.675c0.515,0.588,0.059,1.661,0.793,1.76c0.734,0.098,4.997,1.273,6.369,5.462
		c-1.593-1.812-2.72-1.738-2.72-1.738s2.475,2.817,2.426,4.875c-0.019,0.79-0.801,1.406-1.422,2.523
		c-0.993,1.787-2.021,4.144-2.203,5.168c-0.296,1.666-0.638,4.41-1.349,4.508s-0.587-10.729-0.489-11.416
		c0.245-1.003-4.312-2.179-4.312-2.179s3.331,2.131,2.522,4.164c-0.883-2.353-2.106-2.377-2.106-2.377s2.572,4.948,1.053,5.903
		c-0.883-5.56-3.135-6.713-4.948-7.544c-1.813-0.834-5.757-0.491-8.06,0.367c-2.302,0.857-4.679,0.172-4.679,0.172l0.393,2.107
		l-1.103-0.883l-0.22,1.348c0,0,0.709,1.272,0.612,2.009c-0.71-0.882-1.029-0.882-1.029-0.882s0.613,1.005,0.343,1.543
		c-0.343-0.71-0.931-0.465-0.931-0.465S3.396,28.475,2.661,28.548z"/>
</g>
<g>
</g>
<g>
</g>
<g>
</g>
<g>
</g>
<g>
</g>
<g>
</g>
<g>
</g>
<g>
</g>
<g>
</g>
<g>
</g>
<g>
</g>
<g>
</g>
<g>
</g>
<g>
</g>
<g>
</g>
</svg>
