<?xml version="1.0" encoding="iso-8859-1"?>
<!-- Generator: Adobe Illustrator 16.0.0, SVG Export Plug-In . SVG Version: 6.00 Build 0)  -->
<!DOCTYPE svg PUBLIC "-//W3C//DTD SVG 1.1//EN" "http://www.w3.org/Graphics/SVG/1.1/DTD/svg11.dtd">
<svg version="1.1" id="Capa_1" xmlns="http://www.w3.org/2000/svg" xmlns:xlink="http://www.w3.org/1999/xlink" x="0px" y="0px"
	 width="31.013px" height="31.013px" viewBox="0 0 31.013 31.013" style="enable-background:new 0 0 31.013 31.013;"
	 xml:space="preserve">
<g>
	<g>
		<path d="M30.935,15.952C27.242-0.025,13.748,2.728,13.748,2.728s-1.376-0.471,0.873-1.545c-4.096-1.04-6.646,2.686-6.646,2.686
			S7.102,3.902,7.102,2.325C6.061,2.458,7.035,5.21,7.035,5.21S4.148,5.278,3.476,4.809C3.141,5.882,5.799,5.666,6.565,5.95
			C-6.93,6.889,4.551,25.352,4.618,23.875c-2.014-8.66,2.82-11.815,2.82-11.815s4.095,4.129,7.385,3.761
			c-3.491-1.343-2.809-2.015-2.809-2.015s5.595,0.47,10.999-2.081c2.282,0.1,4.162,5.019,4.699,11.145
			c2.535-1.829,1.88-6.916,1.88-6.916S31.405,17.43,30.935,15.952z"/>
		<path d="M21.292,27.249c-0.867-0.718-2.882-3.035-5.417-0.542c-2.459-2.24-4.407-0.011-5.255,0.693
			c-3.172,1.46-3.323-0.327-3.399-0.807c-2.391,4.306,5.237,3.323,6.345,3.323c1.053,0,2.432-0.63,2.567-0.692
			c0.51,0.208,1.447,0.541,2.213,0.541c1.106,0,8.735,0.982,6.344-3.322C24.616,26.921,24.464,28.709,21.292,27.249z"/>
	</g>
</g>
<g>
</g>
<g>
</g>
<g>
</g>
<g>
</g>
<g>
</g>
<g>
</g>
<g>
</g>
<g>
</g>
<g>
</g>
<g>
</g>
<g>
</g>
<g>
</g>
<g>
</g>
<g>
</g>
<g>
</g>
</svg>
